<svg width="25" height="25" viewBox="0 0 30 29" fill="none" xmlns="http://www.w3.org/2000/svg">
<path d="M8.40945 16.1007L12.8497 11.6383L1.83545 0.584876C0.660048 1.76955 0 3.37428 0 5.04725C0 6.72023 0.660048 8.32495 1.83545 9.50963L8.40945 16.1007ZM19.0471 13.2467C20.484 13.7551 22.0394 13.8196 23.5131 13.4318C24.9867 13.044 26.3111 12.2216 27.3156 11.0707C30.3123 8.05896 30.8929 3.7385 28.5865 1.42059C26.2801 -0.897327 21.9968 -0.313906 18.9843 2.6978C17.8391 3.70732 17.0208 5.0383 16.635 6.51932C16.2491 8.00034 16.3132 9.56355 16.8192 11.0076L1.50596 26.3973L3.71822 28.6206L14.5285 17.7879L25.323 28.6364L27.5353 26.4131L16.7407 15.5646L19.0471 13.2467Z" fill="white"/>
</svg>
